Coordinates
version=1
nRows=38
nColumns=12
inDegrees=yes

Units are S.I. units (second, meters, Newtons, ...)
Angles are in degrees

endheader
time	SC_y	SC_z	SC_x	AC_y	AC_z	AC_x	GH_y	GH_z	GH_yy	EL_x	PS_y
       0.0              -16.86          7.436           23.7          61.85          2.194          19.01         -60.37          65.62         -12.87          78.39          87.12
   0.03044              -16.87          7.438           23.7          61.85          2.195          19.01         -60.36          65.62         -12.89           78.4          87.13
   0.06088              -16.88           7.44          23.71          61.85          2.196          19.01         -60.34          65.62         -12.91          78.41          87.13
   0.09132              -16.88          7.443          23.71          61.84          2.197          19.01         -60.32          65.62         -12.93          78.42          87.14
    0.1218              -16.89          7.446          23.72          61.84          2.198          19.01          -60.3          65.62         -12.95          78.43          87.15
    0.1522               -16.9          7.449          23.72          61.83          2.199           19.0         -60.28          65.62         -12.97          78.44          87.15
    0.1826              -16.91          7.452          23.73          61.83            2.2           19.0         -60.26          65.62         -12.99          78.45          87.16
    0.2131              -16.91          7.456          23.74          61.82          2.202           19.0         -60.24          65.61         -13.02          78.46          87.17
    0.2435              -16.92          7.459          23.74          61.82          2.203           19.0         -60.22          65.61         -13.04          78.47          87.18
     0.274              -16.93          7.463          23.75          61.81          2.205          18.99         -60.19          65.61         -13.07          78.49          87.19
    0.3044              -16.95          7.468          23.76           61.8          2.206          18.99         -60.16          65.61          -13.1           78.5           87.2
    0.3349              -16.96          7.472          23.77          61.79          2.208          18.99         -60.13          65.61         -13.13          78.52          87.21
    0.3653              -16.97          7.477          23.78          61.79           2.21          18.98          -60.1          65.61         -13.17          78.53          87.22
    0.3957              -16.98          7.483          23.79          61.78          2.212          18.98         -60.07          65.61          -13.2          78.55          87.23
    0.4262               -17.0          7.488           23.8          61.77          2.215          18.98         -60.03           65.6         -13.24          78.57          87.24
    0.4566              -17.01          7.495          23.81          61.76          2.217          18.97         -59.99           65.6         -13.29           78.6          87.26
    0.4871              -17.03          7.501          23.82          61.75           2.22          18.97         -59.94           65.6         -13.33          78.62          87.27
    0.5175              -17.05          7.509          23.84          61.73          2.223          18.96         -59.89           65.6         -13.39          78.65          87.29
    0.5479              -17.07          7.517          23.85          61.72          2.226          18.96         -59.84          65.59         -13.44          78.67          87.31
    0.5784              -17.09          7.526          23.87          61.71          2.229          18.95         -59.78          65.59          -13.5           78.7          87.33
    0.6088              -17.12          7.536          23.89          61.69          2.233          18.95         -59.72          65.59         -13.57          78.74          87.35
    0.6393              -17.14          7.546          23.91          61.67          2.237          18.94         -59.65          65.58         -13.65          78.78          87.37
    0.6697              -17.17          7.558          23.93          61.65          2.242          18.93         -59.57          65.58         -13.73          78.82           87.4
    0.7002              -17.21          7.571          23.96          61.63          2.247          18.92         -59.49          65.58         -13.82          78.86          87.43
    0.7306              -17.24          7.586          23.99          61.61          2.253          18.91         -59.39          65.57         -13.92          78.91          87.46
     0.761              -17.29          7.602          24.02          61.58          2.259           18.9         -59.28          65.57         -14.04          78.97           87.5
    0.7915              -17.33          7.621          24.05          61.55          2.266          18.89         -59.17          65.56         -14.17          79.04          87.54
    0.8219              -17.38          7.641          24.09          61.52          2.275          18.88         -59.03          65.55         -14.31          79.11          87.59
    0.8524              -17.44          7.664          24.14          61.48          2.284          18.86         -58.88          65.55         -14.47          79.19          87.64
    0.8828              -17.51          7.691          24.19          61.43          2.294          18.84         -58.71          65.54         -14.66          79.28           87.7
    0.9132              -17.59          7.721          24.25          61.38          2.306          18.82         -58.51          65.53         -14.87          79.39          87.77
    0.9437              -17.67          7.755          24.31          61.33          2.319           18.8         -58.29          65.52         -15.11          79.51          87.85
    0.9741              -17.77          7.795          24.39          61.26          2.335          18.77         -58.03           65.5         -15.38          79.65          87.94
     1.005              -17.89          7.842          24.48          61.19          2.353          18.74         -57.72          65.49         -15.71          79.81          88.04
     1.035              -18.03          7.896          24.58           61.1          2.375          18.71         -57.37          65.47         -16.09           80.0          88.16
     1.065              -18.19           7.96           24.7          60.99            2.4          18.66         -56.95          65.45         -16.53          80.22          88.31
     1.096              -18.38          8.036          24.85          60.87           2.43          18.61         -56.46          65.43         -17.06          80.49          88.48
     1.126              -18.61          8.127          25.03          60.72          2.465          18.55         -55.87           65.4          -17.7          80.81          88.68
